<svg width="14" height="20" viewBox="0 0 14 20" fill="none" xmlns="http://www.w3.org/2000/svg">
<path d="M14 13.3678C14 17.0763 11.0042 20 7.14168 20C3.09075 20 -0.0557765 17.8926 0.000749752 13.3678C0.000749752 12.8503 0.396422 10.062 0.679045 10.062C0.942826 11.0331 1.31966 13.3058 2.22405 12.1694C2.78929 11.2603 1.43271 8.9876 1.58344 7.45868C1.68994 5.92838 2.66074 4.82723 3.3357 4.09091C3.52509 3.8843 3.41107 6.55571 4.3343 5.80579C5.25753 5.05586 5.79218 3.77987 5.93583 2.41736C6.07585 1.08924 5.37058 0 5.80394 0C5.93609 0 6.91979 0.608989 7.98955 1.96281C9.32829 3.65702 9.5534 5.86777 9.5534 6.81818C9.5534 7.76859 10.6462 7.35537 10.5332 6.46694C12.5304 8.11983 14 12.0182 14 13.3678Z" fill="#E41D1B"/>
<path d="M10.2214 14.814C9.60785 13.3058 8.52945 12.1901 8.30634 10.3719C8.30634 10.3719 8.28775 10.1653 8.139 10.1653C7.99026 10.1653 7.8787 10.2893 7.8787 10.2893C5.35008 13.0992 6.50283 15.8471 5.8149 15.8471C5.5546 15.8471 5.12655 15.3308 4.86666 14.7314C4.65154 14.2353 4.53623 13.6364 4.30888 13.6364C3.88124 13.6364 3.2119 15.7438 3.2119 16.3843C3.13753 18.0785 3.54657 19.0083 3.89983 19.4605C4.85382 19.8227 5.93826 20 7.0978 20C8.32551 20 9.48302 19.7294 10.4631 19.1942C11.2997 17.4088 10.5828 15.7025 10.2214 14.814Z" fill="#FFCD57"/>
</svg>
