<svg width="8" height="8" viewBox="0 0 8 8" fill="none" xmlns="http://www.w3.org/2000/svg">
<path d="M7.4462 0.39705L7.5303 0.469693C7.7966 0.735963 7.8208 1.1526 7.6029 1.44621L7.5303 1.53033L5.061 4L7.5303 6.4697C7.7966 6.7359 7.8208 7.1526 7.6029 7.4462L7.5303 7.5303C7.2641 7.7966 6.8474 7.8208 6.5538 7.6029L6.4697 7.5303L4 5.061L1.53033 7.5303C1.26406 7.7966 0.8474 7.8208 0.55379 7.6029L0.469671 7.5303C0.203401 7.2641 0.1792 6.8474 0.39705 6.5538L0.469671 6.4697L2.939 4L0.469671 1.53033C0.203401 1.26406 0.1792 0.8474 0.39705 0.55379L0.469671 0.469671C0.735941 0.203401 1.1526 0.1792 1.44621 0.39705L1.53033 0.469671L4 2.939L6.4697 0.469671C6.7359 0.203401 7.1526 0.1792 7.4462 0.39705Z" fill="#121212"/>
</svg>
