<svg width="22" height="15" viewBox="0 0 22 15" fill="none" xmlns="http://www.w3.org/2000/svg">
    <path 
        d="M13.4804 14.4395H8.67684C8.6675 14.4342 8.65691 14.4313 8.64612 14.4313C8.63533 14.4313 8.62473 14.4342 8.61539 14.4395H8.55394C7.3044 14.4395 5.97293 14.3781 4.66194 14.2859H4.41611C3.89244 14.2672 3.37148 14.202 2.85931 14.0913C2.4011 13.9954 1.97851 13.7741 1.63856 13.4523C1.2986 13.1304 1.05462 12.7205 0.933783 12.2682C0.748163 11.5441 0.638315 10.8027 0.606027 10.0559C0.49513 8.75479 0.471202 7.44771 0.534356 6.1434V5.83615C0.554015 4.80217 0.677526 3.77278 0.903058 2.76351C1.02507 2.26855 1.29551 1.82275 1.67813 1.48589C2.06075 1.14904 2.53724 0.937261 3.04366 0.878954C3.87297 0.735763 4.71167 0.653615 5.553 0.633153C7.36586 0.540974 9.18896 0.5 10.9916 0.5H12.7123C13.9618 0.5 15.2933 0.499985 16.6043 0.612649H16.9627C17.7511 0.629287 18.5362 0.718438 19.3082 0.878954C19.7739 0.96656 20.2047 1.18581 20.5496 1.51074C20.8945 1.83567 21.139 2.25267 21.2542 2.71231C21.3775 3.19266 21.4597 3.68263 21.5 4.17693V4.29983C21.5 4.29983 21.5 4.36129 21.5 4.37153V10.5783C21.4547 10.7067 21.4305 10.8415 21.4283 10.9777C21.4283 11.0391 21.4283 11.1109 21.4283 11.1826C21.4245 11.2337 21.4245 11.285 21.4283 11.3362C21.3901 11.6485 21.325 11.9569 21.2337 12.258C21.0932 12.7355 20.8171 13.1619 20.439 13.4855C20.0608 13.8092 19.5968 14.016 19.1033 14.0811C18.2835 14.2163 17.4554 14.295 16.6248 14.3166H16.4609C15.5698 14.3679 14.6173 14.3986 13.5521 14.4191H13.5009L13.4804 14.4395ZM9.0046 4.46371V10.4349L12.1694 8.72444L13.4087 8.04846L14.5046 7.45439L9.31185 4.62758L9.0046 4.46371Z" 
        fill="currentColor"/>
</svg>
