<svg 
    width="88" 
    height="88" 
    viewBox="0 0 88 88" 
    fill="none" 
    xmlns="http://www.w3.org/2000/svg">
        <path 
            d="M79.4504 18.439C90.518 38.1349 93.1019 54.1054 73.3935 76.9411C52.3711 101.299 13.8803 80.6246 2.81269 60.9286C-11.2777 35.8533 31.9313 40.6837 36.2864 23.9836C41.5459 3.81568 68.3828 -1.25701 79.4504 18.439Z" 
            fill="#E9ECF3"/>
        <path 
            d="M33.7778 2C48.0146 2 59.5556 13.5411 59.5556 27.7778C59.5556 33.9357 57.3963 39.589 53.7938 44.0224L71.2189 61.4479C72.2603 62.4893 72.2603 64.1775 71.2189 65.2189C70.2724 66.1657 68.7908 66.2518 67.7469 65.477L67.4479 65.2189L50.0224 47.7938C45.589 51.3963 39.9357 53.5556 33.7778 53.5556C19.5411 53.5556 8 42.0146 8 27.7778C8 13.5411 19.5411 2 33.7778 2ZM33.7778 7.33334C22.4866 7.33334 13.3333 16.4866 13.3333 27.7778C13.3333 39.0688 22.4866 48.2223 33.7778 48.2223C45.0688 48.2223 54.2223 39.0688 54.2223 27.7778C54.2223 16.4866 45.0688 7.33334 33.7778 7.33334Z" 
            fill="#244486"/>
        <path 
            d="M72.1518 0.31359L72.2268 0.226757C72.5016 -0.048103 72.9317 -0.0730836 73.2348 0.151794L73.3216 0.226757L80 6.90478L86.6784 0.226757C86.9808 -0.0755817 87.4709 -0.0755817 87.7732 0.226757C88.0756 0.529095 88.0756 1.01929 87.7732 1.32163L81.0952 8.00001L87.7732 14.6784C88.0481 14.9532 88.0731 15.3833 87.8482 15.6864L87.7732 15.7732C87.4984 16.0481 87.0683 16.0731 86.7652 15.8482L86.6784 15.7732L80 9.09523L73.3216 15.7732C73.0193 16.0756 72.5291 16.0756 72.2268 15.7732C71.9244 15.4709 71.9244 14.9808 72.2268 14.6784L78.9048 8.00001L72.2268 1.32163C71.9519 1.04677 71.9269 0.616672 72.1518 0.31359L72.2268 0.226757L72.1518 0.31359Z" 
            fill="#244486"/>
        <path 
            d="M8.15179 64.3136L8.22676 64.2268C8.50162 63.9519 8.93172 63.9269 9.2348 64.1518L9.32163 64.2268L16 70.9048L22.6784 64.2268C22.9808 63.9244 23.4709 63.9244 23.7732 64.2268C24.0756 64.5291 24.0756 65.0193 23.7732 65.3216L17.0952 72L23.7732 78.6784C24.0481 78.9532 24.0731 79.3833 23.8482 79.6864L23.7732 79.7732C23.4984 80.0481 23.0683 80.0731 22.7652 79.8482L22.6784 79.7732L16 73.0952L9.32163 79.7732C9.01929 80.0756 8.52909 80.0756 8.22676 79.7732C7.92442 79.4709 7.92442 78.9808 8.22676 78.6784L14.9048 72L8.22676 65.3216C7.9519 65.0468 7.92692 64.6167 8.15179 64.3136L8.22676 64.2268L8.15179 64.3136Z" 
            fill="#244486"/>
</svg>
